<svg xmlns="http://www.w3.org/2000/svg" viewBox="0 0 32 32" fill="none">
  <rect width="32" height="32" rx="8" fill="#3D6B4F"/>
  <path d="M16 28 C16 28 6 22 6 13 C6 7 10 4 16 5 C22 4 26 7 26 13 C26 22 16 28 16 28Z" fill="#A8C5B0"/>
  <path d="M16 28 L16 7" stroke="#3D6B4F" stroke-width="1.5" stroke-linecap="round"/>
  <path d="M16 15 C13 13 9 13 7 13" stroke="#3D6B4F" stroke-width="1" stroke-linecap="round"/>
  <path d="M16 20 C13 18 9 18 7 19" stroke="#3D6B4F" stroke-width="1" stroke-linecap="round"/>
  <path d="M16 15 C19 13 23 13 25 13" stroke="#3D6B4F" stroke-width="1" stroke-linecap="round"/>
  <path d="M16 20 C19 18 23 18 25 19" stroke="#3D6B4F" stroke-width="1" stroke-linecap="round"/>
</svg>
